<svg width="10000" height="10000" viewBox="0 0 10000 10000" fill="none" xmlns="http://www.w3.org/2000/svg">
<g clip-path="url(#clip0_1926_950)">
<rect width="10000" height="10000" fill="white"/>
<path d="M-1.82422 3466L1664.32 3933.09L3330.26 3466L4996.4 3933.09L6662.54 3466L8328.68 3933.09L9995.02 3466" stroke="#A0A3BD" stroke-width="10" stroke-miterlimit="10"/>
<path d="M6.17578 6527L1672.32 6994.09L3338.26 6527L5004.4 6994.09L6670.54 6527L8336.68 6994.09L10003 6527" stroke="#A0A3BD" stroke-width="10" stroke-miterlimit="10"/>
<path d="M0.175781 1736L1666.32 2203.09L3332.26 1736L4998.4 2203.09L6664.54 1736L8330.68 2203.09L9997.02 1736" stroke="#A0A3BD" stroke-width="10" stroke-miterlimit="10"/>
<path d="M-3.82422 5202L1662.32 5669.09L3328.26 5202L4994.4 5669.09L6660.54 5202L8326.68 5669.09L9993.02 5202" stroke="#A0A3BD" stroke-width="10" stroke-miterlimit="10"/>
<path d="M4.17578 8263L1670.32 8730.09L3336.26 8263L5002.4 8730.09L6668.54 8263L8334.68 8730.09L10001 8263" stroke="#A0A3BD" stroke-width="10" stroke-miterlimit="10"/>
<path d="M3.17578 868L1669.32 1335.09L3335.26 868L5001.4 1335.09L6667.54 868L8333.68 1335.09L10000 868" stroke="#A0A3BD" stroke-width="10" stroke-miterlimit="10"/>
<path d="M-0.824219 4334L1665.32 4801.09L3331.26 4334L4997.4 4801.09L6663.54 4334L8329.68 4801.09L9996.02 4334" stroke="#A0A3BD" stroke-width="10" stroke-miterlimit="10"/>
<path d="M7.17578 7395L1673.32 7862.09L3339.26 7395L5005.4 7862.09L6671.54 7395L8337.68 7862.09L10004 7395" stroke="#A0A3BD" stroke-width="10" stroke-miterlimit="10"/>
<path d="M1.17578 2604L1667.32 3071.09L3333.26 2604L4999.4 3071.09L6665.54 2604L8331.68 3071.09L9998.02 2604" stroke="#A0A3BD" stroke-width="10" stroke-miterlimit="10"/>
<path d="M-2.82422 6070L1663.32 6537.09L3329.26 6070L4995.4 6537.09L6661.54 6070L8327.68 6537.09L9994.02 6070" stroke="#A0A3BD" stroke-width="10" stroke-miterlimit="10"/>
<path d="M5.17578 9131L1671.32 9598.09L3337.26 9131L5003.4 9598.09L6669.54 9131L8335.68 9598.09L10002 9131" stroke="#A0A3BD" stroke-width="10" stroke-miterlimit="10"/>
<path d="M1 400.93L1667.14 868.019L3333.09 400.93L4999.23 868.019L6665.37 400.93L8331.51 868.019L9997.84 400.93" stroke="#A0A3BD" stroke-width="10" stroke-miterlimit="10"/>
<path d="M-3 3866.93L1663.14 4334.02L3329.09 3866.93L4995.23 4334.02L6661.37 3866.93L8327.51 4334.02L9993.84 3866.93" stroke="#A0A3BD" stroke-width="10" stroke-miterlimit="10"/>
<path d="M5 6927.93L1671.14 7395.02L3337.09 6927.93L5003.23 7395.02L6669.37 6927.93L8335.51 7395.02L10001.8 6927.93" stroke="#A0A3BD" stroke-width="10" stroke-miterlimit="10"/>
<path d="M-1 2136.93L1665.14 2604.02L3331.09 2136.93L4997.23 2604.02L6663.37 2136.93L8329.51 2604.02L9995.84 2136.93" stroke="#A0A3BD" stroke-width="10" stroke-miterlimit="10"/>
<path d="M-5 5602.93L1661.14 6070.02L3327.09 5602.93L4993.23 6070.02L6659.37 5602.93L8325.51 6070.02L9991.84 5602.93" stroke="#A0A3BD" stroke-width="10" stroke-miterlimit="10"/>
<path d="M3 8663.93L1669.14 9131.02L3335.09 8663.93L5001.23 9131.02L6667.37 8663.93L8333.51 9131.02L9999.84 8663.93" stroke="#A0A3BD" stroke-width="10" stroke-miterlimit="10"/>
<path d="M2 1268.93L1668.14 1736.02L3334.09 1268.93L5000.23 1736.02L6666.37 1268.93L8332.51 1736.02L9998.84 1268.93" stroke="#A0A3BD" stroke-width="10" stroke-miterlimit="10"/>
<path d="M-2 4734.93L1664.14 5202.02L3330.09 4734.93L4996.23 5202.02L6662.37 4734.93L8328.51 5202.02L9994.84 4734.93" stroke="#A0A3BD" stroke-width="10" stroke-miterlimit="10"/>
<path d="M6 7795.93L1672.14 8263.02L3338.09 7795.93L5004.23 8263.02L6670.37 7795.93L8336.51 8263.02L10002.8 7795.93" stroke="#A0A3BD" stroke-width="10" stroke-miterlimit="10"/>
<path d="M0 3004.93L1666.14 3472.02L3332.09 3004.93L4998.23 3472.02L6664.37 3004.93L8330.51 3472.02L9996.84 3004.93" stroke="#A0A3BD" stroke-width="10" stroke-miterlimit="10"/>
<path d="M4 9531.93L1670.14 9999.02L3336.09 9531.93L5002.23 9999.02L6668.37 9531.93L8334.51 9999.02L10000.8 9531.93" stroke="#A0A3BD" stroke-width="10" stroke-miterlimit="10"/>
<path d="M2.17578 0L1668.32 467.089L3334.26 0L5000.4 467.089L6666.54 0L8332.68 467.089L9999.02 0" stroke="#A0A3BD" stroke-width="10" stroke-miterlimit="10"/>
</g>
<defs>
<clipPath id="clip0_1926_950">
<rect width="10000" height="10000" fill="white"/>
</clipPath>
</defs>
</svg>
